<svg id="svg" version="1.1" xmlns="http://www.w3.org/2000/svg" xmlns:xlink="http://www.w3.org/1999/xlink" width="400" height="400" viewBox="0, 0, 400,400"><g id="svgg"><path id="path0" d="M0.070 94.629 C 0.109 146.675,0.197 188.379,0.267 187.305 C 1.088 174.547,4.048 156.855,7.074 146.622 C 7.509 145.150,8.194 142.803,8.596 141.406 C 12.015 129.535,20.471 110.141,26.705 99.872 C 27.701 98.231,28.516 96.710,28.516 96.491 C 28.516 96.273,28.651 96.094,28.817 96.094 C 28.983 96.094,29.465 95.435,29.888 94.629 C 31.924 90.751,39.298 80.481,46.368 71.680 C 61.139 53.288,85.150 34.015,107.814 22.358 C 133.355 9.220,156.902 2.705,187.695 0.256 C 188.555 0.187,146.675 0.102,94.629 0.066 L 0.000 0.000 0.070 94.629 M212.305 0.256 C 231.872 1.812,246.076 4.491,261.328 9.501 C 299.950 22.187,331.909 44.358,356.870 75.781 C 361.532 81.650,368.540 91.623,370.114 94.629 C 370.536 95.435,371.017 96.094,371.183 96.094 C 371.349 96.094,371.484 96.273,371.484 96.491 C 371.484 96.710,372.310 98.248,373.319 99.909 C 378.123 107.818,384.908 122.532,388.679 133.217 C 390.594 138.643,391.112 140.309,393.177 147.656 C 396.292 158.744,398.916 174.614,399.733 187.305 C 399.803 188.379,399.891 146.675,399.930 94.629 L 400.000 0.000 305.371 0.066 C 253.325 0.102,211.445 0.187,212.305 0.256 M125.056 93.417 C 121.815 94.349,119.125 97.163,118.389 100.391 C 118.123 101.556,117.985 125.180,117.978 170.508 L 117.969 238.867 109.277 238.867 C 97.480 238.867,94.823 239.875,91.873 245.466 L 90.820 247.461 90.820 272.852 L 90.820 298.242 91.752 300.135 C 92.922 302.512,95.015 304.599,97.494 305.859 L 99.414 306.836 200.000 306.836 L 300.586 306.836 302.506 305.859 C 304.985 304.599,307.078 302.512,308.248 300.135 L 309.180 298.242 309.180 272.852 L 309.180 247.461 308.127 245.466 C 305.393 240.284,302.460 238.975,293.164 238.788 L 286.523 238.654 286.328 182.978 L 286.133 127.302 268.973 110.136 L 251.814 92.969 189.091 93.004 C 150.026 93.026,125.873 93.182,125.056 93.417 M248.047 116.402 L 248.047 130.850 262.793 130.952 L 277.539 131.055 277.539 184.872 L 277.539 238.689 202.344 238.681 L 127.148 238.673 127.050 170.313 L 126.951 101.953 187.499 101.953 L 248.047 101.953 248.047 116.402 M150.085 170.410 L 150.195 174.805 202.441 174.904 L 254.688 175.003 254.688 170.509 L 254.688 166.016 202.331 166.016 L 149.974 166.016 150.085 170.410 M150.000 202.147 L 150.000 206.641 202.357 206.641 L 254.713 206.641 254.603 202.246 L 254.492 197.852 202.246 197.752 L 150.000 197.653 150.000 202.147 M0.072 305.371 L 0.000 400.000 94.629 399.934 C 146.675 399.898,188.555 399.813,187.695 399.744 C 157.905 397.375,136.172 391.555,110.938 379.191 C 87.129 367.526,61.609 347.419,46.372 328.320 C 46.029 327.891,44.627 326.133,43.256 324.414 C 38.632 318.617,31.569 308.552,29.892 305.371 C 29.467 304.565,28.983 303.906,28.817 303.906 C 28.651 303.906,28.516 303.727,28.516 303.507 C 28.516 303.288,27.480 301.398,26.215 299.308 C 12.324 276.368,2.053 242.148,0.275 212.891 C 0.203 211.709,0.112 253.325,0.072 305.371 M399.609 213.097 C 399.609 222.948,396.097 242.492,391.468 258.398 C 387.115 273.356,377.317 294.627,368.797 307.615 C 342.837 347.185,307.262 375.025,264.055 389.582 C 246.811 395.392,233.049 398.094,212.305 399.744 C 211.445 399.813,253.325 399.898,305.371 399.934 L 400.000 400.000 400.000 305.469 C 400.000 253.477,399.912 210.938,399.805 210.938 C 399.697 210.938,399.609 211.909,399.609 213.097 M176.049 256.270 C 179.209 257.337,181.323 259.219,182.854 262.329 C 183.539 263.720,184.029 264.917,183.944 264.988 C 183.859 265.059,182.333 265.476,180.554 265.915 L 177.319 266.713 176.767 265.486 C 174.112 259.586,166.439 259.890,163.378 266.016 C 162.113 268.548,162.401 276.232,163.869 279.129 C 166.720 284.753,173.692 284.678,176.413 278.994 C 177.002 277.764,177.539 276.686,177.606 276.598 C 177.747 276.414,183.237 278.167,183.718 278.550 C 183.895 278.690,183.618 279.801,183.104 281.020 C 178.192 292.668,160.887 291.669,156.607 279.490 C 151.503 264.967,162.590 251.725,176.049 256.270 M205.411 255.884 C 209.553 256.772,212.602 259.897,213.137 263.801 L 213.387 265.625 210.002 265.625 C 207.121 265.625,206.584 265.523,206.398 264.941 C 205.520 262.195,203.916 261.148,200.586 261.148 C 195.913 261.148,193.640 264.184,196.775 266.238 C 197.348 266.613,200.022 267.517,202.717 268.247 C 212.843 270.989,216.234 275.476,213.578 282.617 C 211.918 287.080,208.418 288.870,201.367 288.861 C 193.833 288.852,190.667 287.080,188.675 281.755 C 187.249 277.942,188.249 277.092,193.940 277.283 C 194.151 277.290,194.474 277.872,194.656 278.575 C 196.277 284.830,207.422 285.158,207.422 278.952 C 207.422 277.179,205.605 276.042,200.781 274.796 C 191.837 272.486,189.003 269.978,188.990 264.359 C 188.974 257.804,196.428 253.957,205.411 255.884 M237.695 256.594 C 241.007 258.069,243.092 260.814,243.425 264.138 L 243.555 265.430 240.171 265.542 L 236.787 265.654 236.529 264.478 C 235.676 260.594,226.070 259.738,225.725 263.515 C 225.517 265.799,226.761 266.608,233.147 268.344 C 241.556 270.630,243.868 272.596,244.418 277.926 C 245.156 285.074,239.739 289.392,230.563 288.969 C 223.082 288.625,219.238 285.654,218.181 279.399 L 217.919 277.849 219.995 277.600 C 224.132 277.103,224.436 277.178,224.929 278.822 C 226.487 284.025,235.086 285.138,237.371 280.434 C 238.633 277.837,236.850 276.333,230.469 274.612 C 222.074 272.347,219.172 269.787,219.149 264.627 C 219.117 257.305,229.344 252.875,237.695 256.594 " stroke="none" fill="#fbfbfb" fill-rule="evenodd"></path><path id="path1" d="M192.188 0.233 C 177.323 1.056,167.922 2.357,153.125 5.637 C 97.997 17.859,47.448 58.257,20.877 111.328 C -11.863 176.717,-5.199 258.196,37.664 316.602 C 57.630 343.807,85.851 367.634,112.500 379.785 C 113.252 380.128,115.625 381.226,117.773 382.225 C 154.035 399.092,200.444 404.285,239.844 395.883 C 248.130 394.117,249.388 393.807,255.664 391.994 C 296.516 380.193,331.173 356.481,358.721 321.484 C 372.810 303.586,385.318 278.845,391.997 255.664 C 421.442 153.464,366.510 47.035,265.820 11.202 C 244.098 3.471,214.181 -0.986,192.188 0.233 M269.334 110.155 L 286.719 127.536 286.719 183.104 L 286.719 238.672 293.119 238.672 C 302.540 238.672,305.706 240.098,308.258 245.492 L 309.374 247.852 309.375 272.705 C 309.375 300.194,309.463 299.155,306.821 302.754 C 305.839 304.093,304.738 304.992,303.045 305.837 L 300.656 307.031 200.000 307.031 L 99.344 307.031 96.955 305.837 C 94.320 304.521,92.232 302.113,91.208 299.211 C 90.255 296.510,90.342 249.040,91.305 246.289 C 93.420 240.246,97.123 238.672,109.225 238.672 L 117.969 238.672 117.977 169.434 C 117.987 92.031,117.741 98.726,120.686 95.781 C 123.542 92.925,117.349 93.186,187.305 92.969 C 221.895 92.861,250.590 92.773,251.073 92.773 C 251.709 92.773,256.736 97.559,269.334 110.155 M127.832 102.217 C 127.444 102.369,127.344 116.398,127.344 170.540 L 127.344 238.672 202.344 238.672 L 277.344 238.672 277.344 184.961 L 277.344 131.250 262.695 131.250 L 248.047 131.250 248.047 116.842 L 248.047 102.435 247.168 102.197 C 246.131 101.916,128.547 101.936,127.832 102.217 M254.688 170.313 L 254.688 175.000 202.148 175.000 L 149.609 175.000 149.609 170.313 L 149.609 165.625 202.148 165.625 L 254.688 165.625 254.688 170.313 M254.688 202.345 L 254.688 207.034 202.246 206.935 L 149.805 206.836 149.693 202.761 C 149.631 200.519,149.669 198.454,149.778 198.171 C 149.940 197.749,159.374 197.656,202.331 197.656 L 254.688 197.656 254.688 202.345 M228.043 255.880 C 218.722 257.293,216.141 267.217,223.831 272.072 C 225.104 272.876,227.489 273.632,234.220 275.367 C 240.464 276.977,238.341 283.594,231.581 283.594 C 228.252 283.594,226.263 282.386,225.041 279.623 C 224.091 277.472,223.967 277.353,222.857 277.522 C 222.209 277.620,220.863 277.804,219.864 277.930 L 218.049 278.161 218.534 279.998 C 219.937 285.315,223.050 287.930,228.913 288.719 C 238.119 289.958,244.152 285.913,244.130 278.516 C 244.114 273.121,241.209 270.603,232.410 268.356 C 226.555 266.862,225.131 265.897,225.453 263.646 C 226.035 259.593,235.158 260.024,236.558 264.170 C 236.868 265.086,237.214 265.422,237.828 265.402 C 238.292 265.386,239.746 265.342,241.059 265.304 L 243.446 265.234 243.178 263.770 C 242.115 257.952,235.864 254.694,228.043 255.880 M164.844 256.704 C 156.858 259.817,153.157 272.403,157.623 281.254 C 162.449 290.818,176.861 291.670,181.984 282.694 C 184.122 278.950,184.076 278.738,180.927 277.782 C 177.422 276.717,177.545 276.696,177.015 278.463 C 174.998 285.194,165.997 285.346,163.322 278.695 C 162.102 275.662,161.973 269.683,163.059 266.460 C 165.464 259.317,174.799 259.082,177.435 266.098 C 177.555 266.418,182.846 265.300,183.327 264.853 C 183.828 264.388,182.016 260.922,180.455 259.361 C 177.068 255.974,169.861 254.747,164.844 256.704 M195.587 256.423 C 190.706 258.164,188.255 262.316,189.452 266.813 C 190.480 270.674,193.231 272.554,200.789 274.560 C 207.221 276.268,208.811 277.809,207.214 280.790 C 204.854 285.199,197.206 284.517,194.850 279.688 L 193.802 277.539 191.921 277.654 C 189.917 277.777,187.891 278.107,187.891 278.310 C 187.891 289.111,207.952 293.274,212.935 283.506 C 216.431 276.654,212.732 271.130,202.930 268.566 C 196.023 266.760,193.563 264.584,195.845 262.302 C 198.914 259.234,206.641 261.202,206.641 265.052 C 206.641 265.565,206.925 265.648,208.105 265.476 C 208.911 265.359,210.317 265.257,211.230 265.249 C 215.388 265.212,211.453 257.925,206.472 256.435 C 204.048 255.710,197.605 255.703,195.587 256.423 " stroke="none" fill="#939393" fill-rule="evenodd"></path><path id="path2" d="M189.551 0.269 C 189.927 0.368,190.542 0.368,190.918 0.269 C 191.294 0.171,190.986 0.091,190.234 0.091 C 189.482 0.091,189.175 0.171,189.551 0.269 M209.082 0.269 C 209.458 0.368,210.073 0.368,210.449 0.269 C 210.825 0.171,210.518 0.091,209.766 0.091 C 209.014 0.091,208.706 0.171,209.082 0.269 M62.500 54.492 C 61.551 55.459,60.863 56.250,60.970 56.250 C 61.078 56.250,61.942 55.459,62.891 54.492 C 63.839 53.525,64.528 52.734,64.420 52.734 C 64.313 52.734,63.449 53.525,62.500 54.492 M337.093 54.395 C 338.051 55.415,338.886 56.250,338.949 56.250 C 339.242 56.250,338.932 55.899,337.207 54.281 L 335.352 52.539 337.093 54.395 M54.666 62.402 L 53.320 63.867 54.785 62.521 C 56.149 61.268,56.430 60.938,56.131 60.938 C 56.066 60.938,55.407 61.597,54.666 62.402 M345.703 63.086 C 346.870 64.268,347.913 65.234,348.020 65.234 C 348.128 65.234,347.261 64.268,346.094 63.086 C 344.927 61.904,343.884 60.938,343.777 60.938 C 343.669 60.938,344.536 61.904,345.703 63.086 M254.297 95.508 C 255.026 96.260,255.710 96.875,255.817 96.875 C 255.925 96.875,255.416 96.260,254.688 95.508 C 253.959 94.756,253.274 94.141,253.167 94.141 C 253.060 94.141,253.568 94.756,254.297 95.508 M257.422 98.633 C 258.151 99.385,258.835 100.000,258.942 100.000 C 259.050 100.000,258.541 99.385,257.813 98.633 C 257.084 97.881,256.399 97.266,256.292 97.266 C 256.185 97.266,256.693 97.881,257.422 98.633 M260.547 101.758 C 261.276 102.510,261.960 103.125,262.067 103.125 C 262.175 103.125,261.666 102.510,260.938 101.758 C 260.209 101.006,259.524 100.391,259.417 100.391 C 259.310 100.391,259.818 101.006,260.547 101.758 M263.672 104.883 C 264.401 105.635,265.085 106.250,265.192 106.250 C 265.300 106.250,264.791 105.635,264.063 104.883 C 263.334 104.131,262.649 103.516,262.542 103.516 C 262.435 103.516,262.943 104.131,263.672 104.883 M266.797 108.008 C 267.526 108.760,268.210 109.375,268.317 109.375 C 268.425 109.375,267.916 108.760,267.188 108.008 C 266.459 107.256,265.774 106.641,265.667 106.641 C 265.560 106.641,266.068 107.256,266.797 108.008 M269.922 111.133 C 270.651 111.885,271.335 112.500,271.442 112.500 C 271.550 112.500,271.041 111.885,270.313 111.133 C 269.584 110.381,268.899 109.766,268.792 109.766 C 268.685 109.766,269.193 110.381,269.922 111.133 M273.047 114.258 C 273.776 115.010,274.460 115.625,274.567 115.625 C 274.675 115.625,274.166 115.010,273.438 114.258 C 272.709 113.506,272.024 112.891,271.917 112.891 C 271.810 112.891,272.318 113.506,273.047 114.258 M276.172 117.383 C 276.901 118.135,277.585 118.750,277.692 118.750 C 277.800 118.750,277.291 118.135,276.563 117.383 C 275.834 116.631,275.149 116.016,275.042 116.016 C 274.935 116.016,275.443 116.631,276.172 117.383 M279.297 120.508 C 280.026 121.260,280.710 121.875,280.817 121.875 C 280.925 121.875,280.416 121.260,279.688 120.508 C 278.959 119.756,278.274 119.141,278.167 119.141 C 278.060 119.141,278.568 119.756,279.297 120.508 M282.422 123.633 C 283.151 124.385,283.835 125.000,283.942 125.000 C 284.050 125.000,283.541 124.385,282.813 123.633 C 282.084 122.881,281.399 122.266,281.292 122.266 C 281.185 122.266,281.693 122.881,282.422 123.633 M286.422 183.082 C 286.370 213.631,286.460 238.707,286.621 238.807 C 286.886 238.971,286.884 200.936,286.617 147.656 C 286.562 136.592,286.474 152.534,286.422 183.082 M277.148 184.961 C 277.148 214.676,277.280 238.906,277.441 238.807 C 277.603 238.707,277.734 214.477,277.734 184.961 C 277.734 155.445,277.603 131.215,277.441 131.115 C 277.280 131.015,277.148 155.246,277.148 184.961 M176.074 165.918 C 190.308 165.975,213.599 165.975,227.832 165.918 C 242.065 165.861,230.420 165.815,201.953 165.815 C 173.486 165.815,161.841 165.861,176.074 165.918 M0.091 190.234 C 0.091 190.986,0.171 191.294,0.269 190.918 C 0.368 190.542,0.368 189.927,0.269 189.551 C 0.171 189.175,0.091 189.482,0.091 190.234 M399.700 190.234 C 399.700 190.986,399.780 191.294,399.879 190.918 C 399.977 190.542,399.977 189.927,399.879 189.551 C 399.780 189.175,399.700 189.482,399.700 190.234 M177.246 206.934 C 190.620 206.991,212.505 206.991,225.879 206.934 C 239.253 206.877,228.311 206.830,201.563 206.830 C 174.814 206.830,163.872 206.877,177.246 206.934 M0.091 209.766 C 0.091 210.518,0.171 210.825,0.269 210.449 C 0.368 210.073,0.368 209.458,0.269 209.082 C 0.171 208.706,0.091 209.014,0.091 209.766 M399.700 209.766 C 399.700 210.518,399.780 210.825,399.879 210.449 C 399.977 210.073,399.977 209.458,399.879 209.082 C 399.780 208.706,399.700 209.014,399.700 209.766 M100.488 238.941 C 100.864 239.039,101.479 239.039,101.855 238.941 C 102.231 238.843,101.924 238.763,101.172 238.763 C 100.420 238.763,100.112 238.843,100.488 238.941 M298.145 238.941 C 298.521 239.039,299.136 239.039,299.512 238.941 C 299.888 238.843,299.580 238.763,298.828 238.763 C 298.076 238.763,297.769 238.843,298.145 238.941 M205.078 275.889 C 205.078 275.964,205.649 276.443,206.348 276.954 C 207.133 277.529,207.406 277.624,207.063 277.202 C 206.543 276.561,205.078 275.593,205.078 275.889 M214.153 278.906 C 214.153 279.658,214.234 279.966,214.332 279.590 C 214.430 279.214,214.430 278.599,214.332 278.223 C 214.234 277.847,214.153 278.154,214.153 278.906 M179.858 285.645 L 178.711 286.914 179.980 285.767 C 181.164 284.697,181.430 284.375,181.128 284.375 C 181.061 284.375,180.489 284.946,179.858 285.645 M345.690 337.012 L 343.555 339.258 345.801 337.123 C 347.887 335.139,348.226 334.766,347.936 334.766 C 347.875 334.766,346.864 335.776,345.690 337.012 M54.688 337.695 C 55.416 338.447,56.101 339.063,56.208 339.063 C 56.315 339.063,55.807 338.447,55.078 337.695 C 54.349 336.943,53.665 336.328,53.558 336.328 C 53.450 336.328,53.959 336.943,54.688 337.695 M62.484 345.410 C 64.102 347.135,64.453 347.445,64.453 347.152 C 64.453 347.089,63.618 346.254,62.598 345.296 L 60.742 343.555 62.484 345.410 M337.109 345.508 C 336.161 346.475,335.472 347.266,335.580 347.266 C 335.687 347.266,336.551 346.475,337.500 345.508 C 338.449 344.541,339.137 343.750,339.030 343.750 C 338.922 343.750,338.058 344.541,337.109 345.508 M189.551 399.879 C 189.927 399.977,190.542 399.977,190.918 399.879 C 191.294 399.780,190.986 399.700,190.234 399.700 C 189.482 399.700,189.175 399.780,189.551 399.879 M209.082 399.879 C 209.458 399.977,210.073 399.977,210.449 399.879 C 210.825 399.780,210.518 399.700,209.766 399.700 C 209.014 399.700,208.706 399.780,209.082 399.879 " stroke="none" fill="#cccccc" fill-rule="evenodd"></path><path id="path3" d="M255.762 131.152 C 259.683 131.215,266.099 131.215,270.020 131.152 C 273.940 131.088,270.732 131.036,262.891 131.036 C 255.049 131.036,251.841 131.088,255.762 131.152 M150.684 206.916 C 151.167 207.009,151.958 207.009,152.441 206.916 C 152.925 206.823,152.529 206.747,151.563 206.747 C 150.596 206.747,150.200 206.823,150.684 206.916 " stroke="none" fill="#c4c4c4" fill-rule="evenodd"></path><path id="path4" d="M192.676 0.269 C 193.052 0.368,193.667 0.368,194.043 0.269 C 194.419 0.171,194.111 0.091,193.359 0.091 C 192.607 0.091,192.300 0.171,192.676 0.269 M205.957 0.269 C 206.333 0.368,206.948 0.368,207.324 0.269 C 207.700 0.171,207.393 0.091,206.641 0.091 C 205.889 0.091,205.581 0.171,205.957 0.269 M127.134 102.441 C 127.031 102.710,126.994 133.516,127.049 170.898 L 127.151 238.867 127.247 170.638 C 127.324 116.493,127.445 102.368,127.832 102.212 C 128.214 102.058,128.212 102.008,127.820 101.984 C 127.544 101.967,127.236 102.173,127.134 102.441 M149.760 170.313 C 149.760 172.998,149.822 174.097,149.899 172.754 C 149.975 171.411,149.975 169.214,149.899 167.871 C 149.822 166.528,149.760 167.627,149.760 170.313 M0.091 193.359 C 0.091 194.111,0.171 194.419,0.269 194.043 C 0.368 193.667,0.368 193.052,0.269 192.676 C 0.171 192.300,0.091 192.607,0.091 193.359 M399.700 193.359 C 399.700 194.111,399.780 194.419,399.879 194.043 C 399.977 193.667,399.977 193.052,399.879 192.676 C 399.780 192.300,399.700 192.607,399.700 193.359 M149.757 202.344 C 149.757 204.814,149.821 205.825,149.898 204.590 C 149.976 203.354,149.976 201.333,149.898 200.098 C 149.821 198.862,149.757 199.873,149.757 202.344 M0.091 206.641 C 0.091 207.393,0.171 207.700,0.269 207.324 C 0.368 206.948,0.368 206.333,0.269 205.957 C 0.171 205.581,0.091 205.889,0.091 206.641 M399.700 206.641 C 399.700 207.393,399.780 207.700,399.879 207.324 C 399.977 206.948,399.977 206.333,399.879 205.957 C 399.780 205.581,399.700 205.889,399.700 206.641 M169.831 255.752 C 170.533 255.839,171.588 255.837,172.175 255.748 C 172.762 255.659,172.188 255.588,170.898 255.590 C 169.609 255.592,169.129 255.665,169.831 255.752 M199.909 255.752 C 200.611 255.839,201.666 255.837,202.253 255.748 C 202.840 255.659,202.266 255.588,200.977 255.590 C 199.688 255.592,199.207 255.665,199.909 255.752 M239.160 265.504 C 239.536 265.602,240.151 265.602,240.527 265.504 C 240.903 265.405,240.596 265.325,239.844 265.325 C 239.092 265.325,238.784 265.405,239.160 265.504 M162.216 272.266 C 162.216 273.232,162.292 273.628,162.385 273.145 C 162.478 272.661,162.478 271.870,162.385 271.387 C 162.292 270.903,162.216 271.299,162.216 272.266 M192.676 399.879 C 193.052 399.977,193.667 399.977,194.043 399.879 C 194.419 399.780,194.111 399.700,193.359 399.700 C 192.607 399.700,192.300 399.780,192.676 399.879 M205.957 399.879 C 206.333 399.977,206.948 399.977,207.324 399.879 C 207.700 399.780,207.393 399.700,206.641 399.700 C 205.889 399.700,205.581 399.780,205.957 399.879 " stroke="none" fill="#bcbcbc" fill-rule="evenodd"></path></g></svg>