<?xml version="1.0" standalone="no"?>
<!DOCTYPE svg PUBLIC "-//W3C//DTD SVG 20010904//EN"
 "http://www.w3.org/TR/2001/REC-SVG-20010904/DTD/svg10.dtd">
<svg version="1.0" xmlns="http://www.w3.org/2000/svg"
 width="225.000000pt" height="224.000000pt" viewBox="0 0 225.000000 224.000000"
 preserveAspectRatio="xMidYMid meet">

<g transform="translate(0.000000,224.000000) scale(0.100000,-0.100000)"
fill="#000000" stroke="none">
<path d="M991 2229 c-123 -15 -230 -48 -356 -109 -140 -69 -223 -129 -324
-235 -428 -450 -408 -1145 45 -1575 443 -421 1134 -409 1569 25 328 329 418
835 221 1250 -158 334 -447 559 -811 633 -76 16 -261 22 -344 11z m244 -79
c434 -49 790 -356 902 -776 23 -87 26 -118 26 -254 0 -135 -3 -168 -26 -251
-89 -336 -330 -604 -648 -720 -139 -51 -210 -63 -369 -62 -182 1 -293 27 -455
107 -209 104 -369 264 -471 471 -63 130 -91 226 -103 358 -35 365 132 726 434
939 130 92 285 156 427 177 40 6 84 13 98 15 49 7 96 6 185 -4z"/>
<path d="M630 1510 l0 -299 -67 -3 -68 -3 0 -290 0 -290 68 -3 67 -3 0 -95 0
-94 498 2 497 3 3 92 3 92 62 3 62 3 0 290 0 290 -62 3 -63 3 0 192 0 192
-108 108 -107 107 -393 0 -392 0 0 -300z m750 215 c0 -54 19 -102 49 -130 17
-14 41 -20 92 -23 l69 -4 0 -179 0 -179 -460 0 -460 0 0 280 0 280 355 0 355
0 0 -45z m115 -55 l59 -60 -36 0 c-49 0 -87 33 -95 83 -3 20 -2 37 4 37 5 0
35 -27 68 -60z m225 -755 l0 -255 -595 0 -595 0 0 255 0 255 595 0 595 0 0
-255z m-130 -370 l0 -75 -460 0 -460 0 0 75 0 75 460 0 460 0 0 -75z"/>
<path d="M792 1553 c3 -17 23 -18 243 -18 220 0 240 1 243 18 3 16 -14 17
-243 17 -229 0 -246 -1 -243 -17z"/>
<path d="M795 1450 c-17 -27 17 -30 336 -30 322 0 329 0 329 20 0 20 -7 20
-329 20 -209 0 -332 -4 -336 -10z"/>
<path d="M803 1343 c-7 -2 -13 -11 -13 -19 0 -11 55 -14 318 -16 175 -2 326
-1 336 0 10 2 16 11 14 20 -3 15 -33 17 -323 19 -176 1 -326 -1 -332 -4z"/>
<path d="M637 1041 c-2 -3 -1 -63 1 -133 4 -127 4 -128 28 -128 23 0 24 3 24
60 l0 60 50 0 50 0 0 -61 c0 -60 0 -60 28 -57 l27 3 3 128 3 127 -31 0 c-29 0
-30 -1 -30 -50 l0 -50 -50 0 -50 0 0 54 c0 51 -1 54 -25 54 -14 0 -27 -3 -28
-7z"/>
<path d="M983 1043 c-95 -3 -103 -5 -103 -23 0 -17 7 -20 40 -20 l40 0 0 -110
0 -110 25 0 25 0 0 110 0 110 40 0 c36 0 40 3 40 25 0 14 -1 24 -2 23 -2 -1
-49 -4 -105 -5z"/>
<path d="M1130 913 c0 -126 1 -133 20 -133 19 0 20 7 20 97 0 53 3 94 6 90 3
-3 16 -45 28 -94 20 -80 24 -88 48 -91 24 -3 27 1 51 95 l25 98 1 -97 c1 -98
1 -98 26 -98 l25 0 0 129 0 129 -40 4 c-45 4 -39 13 -71 -115 -6 -27 -15 -45
-19 -40 -4 4 -15 40 -25 80 l-18 71 -39 4 -38 4 0 -133z"/>
<path d="M1432 913 l3 -128 93 -3 92 -3 0 26 c0 24 -2 25 -65 25 l-65 0 0 105
0 105 -30 0 -31 0 3 -127z"/>
</g>
</svg>
