<?xml version="1.0" standalone="no"?>
<!DOCTYPE svg PUBLIC "-//W3C//DTD SVG 20010904//EN"
 "http://www.w3.org/TR/2001/REC-SVG-20010904/DTD/svg10.dtd">
<svg version="1.0" xmlns="http://www.w3.org/2000/svg"
 width="225.000000pt" height="225.000000pt" viewBox="0 0 225.000000 225.000000"
 preserveAspectRatio="xMidYMid meet">

<g transform="translate(0.000000,225.000000) scale(0.100000,-0.100000)"
fill="#000000" stroke="none">
<path d="M291 2232 c-19 -9 -44 -30 -55 -45 -21 -28 -21 -35 -24 -1050 -2
-958 -1 -1024 15 -1056 10 -19 31 -44 46 -55 28 -21 35 -21 852 -21 817 0 824
0 852 21 15 11 36 36 45 55 17 32 18 96 18 905 l0 871 -216 196 -216 197 -641
0 c-591 0 -645 -1 -676 -18z m1219 -297 l0 -175 195 0 195 0 0 -810 0 -810
-775 0 -775 0 0 985 0 985 580 0 580 0 0 -175z m270 -31 c0 -2 -29 -4 -65 -4
l-65 0 0 61 0 61 65 -57 c36 -32 65 -59 65 -61z"/>
<path d="M1080 1364 c-74 -186 -136 -343 -138 -349 -3 -11 85 -52 92 -44 5 6
276 687 276 693 0 7 -36 22 -73 31 -21 6 -31 -16 -157 -331z"/>
<path d="M749 1518 c-47 -51 -100 -110 -118 -130 l-32 -37 122 -131 122 -131
33 32 c19 18 34 36 34 40 0 3 -38 48 -85 99 l-85 92 59 66 c32 37 71 78 85 91
14 14 26 30 26 37 0 11 -59 64 -71 64 -3 0 -43 -42 -90 -92z"/>
<path d="M1373 1584 c-40 -31 -41 -43 -7 -75 14 -13 53 -54 85 -91 l59 -66
-85 -92 c-47 -51 -85 -96 -85 -99 0 -4 15 -22 34 -40 l33 -32 122 131 122 131
-32 37 c-71 81 -203 222 -209 222 -3 0 -20 -12 -37 -26z"/>
<path d="M970 605 c0 -144 -2 -166 -16 -172 -9 -3 -25 -1 -36 6 -16 10 -24 9
-44 -4 -30 -19 -30 -26 0 -54 46 -44 138 -34 166 18 6 12 10 94 10 195 l0 176
-40 0 -40 0 0 -165z"/>
<path d="M1180 752 c-49 -24 -69 -81 -47 -135 14 -32 27 -43 84 -69 37 -17 76
-38 86 -46 26 -23 22 -61 -9 -72 -40 -15 -53 -12 -86 20 -28 29 -33 30 -64 20
-19 -7 -34 -14 -34 -17 0 -4 11 -21 25 -39 53 -70 173 -82 235 -24 26 25 30
35 30 82 0 67 -23 92 -123 137 -37 17 -70 37 -73 46 -18 46 71 63 103 20 17
-24 20 -25 55 -13 l38 13 -20 33 c-36 59 -130 80 -200 44z"/>
</g>
</svg>
